<mxfile host="Electron" agent="Mozilla/5.0 (Macintosh; Intel Mac OS X 10_15_7) AppleWebKit/537.36 (KHTML, like Gecko) draw.io/24.7.8 Chrome/128.0.6613.36 Electron/32.0.1 Safari/537.36" version="24.7.8">
  <diagram name="Page-1" id="e3a06f82-3646-2815-327d-82caf3d4e204">
    <mxGraphModel dx="3306.5" dy="1134" grid="1" gridSize="10" guides="1" tooltips="1" connect="1" arrows="1" fold="1" page="1" pageScale="1.5" pageWidth="1169" pageHeight="826" background="none" math="0" shadow="0">
      <root>
        <mxCell id="0" style=";html=1;" />
        <mxCell id="1" style=";html=1;" parent="0" />
        <mxCell id="6a7d8f32e03d9370-58" value="&lt;font style=&quot;font-size: 18px;&quot;&gt;Proxy server &lt;br&gt;&lt;b&gt;squid_proxy&lt;/b&gt;&lt;/font&gt;" style="whiteSpace=wrap;html=1;fillColor=#dae8fc;fontSize=14;strokeColor=none;verticalAlign=top;" parent="1" vertex="1">
          <mxGeometry x="-980" y="711.5" width="170" height="174" as="geometry" />
        </mxCell>
        <mxCell id="6a7d8f32e03d9370-57" value="&lt;font style=&quot;font-size: 18px;&quot;&gt;&lt;b&gt;Datacenter ZZZ&lt;/b&gt;&lt;/font&gt;" style="whiteSpace=wrap;html=1;fillColor=#FFD470;gradientColor=none;fontSize=14;strokeColor=none;verticalAlign=top;" parent="1" vertex="1">
          <mxGeometry x="-701" y="368" width="308" height="680" as="geometry" />
        </mxCell>
        <mxCell id="6a7d8f32e03d9370-35" style="edgeStyle=none;rounded=0;html=1;startSize=10;endSize=10;jettySize=auto;orthogonalLoop=1;fontSize=14;endArrow=none;endFill=0;strokeWidth=2;entryX=0.055;entryY=0.526;entryDx=0;entryDy=0;entryPerimeter=0;exitX=1;exitY=0.25;exitDx=0;exitDy=0;startArrow=classic;startFill=1;" parent="1" source="6a7d8f32e03d9370-58" target="6a7d8f32e03d9370-5" edge="1">
          <mxGeometry relative="1" as="geometry">
            <mxPoint x="-1010" y="569.9999310820124" as="sourcePoint" />
            <mxPoint x="-380.5" y="571.0845279117848" as="targetPoint" />
          </mxGeometry>
        </mxCell>
        <mxCell id="6a7d8f32e03d9370-3" value="Hostname5" style="verticalLabelPosition=bottom;aspect=fixed;html=1;verticalAlign=top;strokeColor=none;shape=mxgraph.citrix.desktop;fillColor=#66B2FF;gradientColor=#0066CC;fontSize=14;" parent="1" vertex="1">
          <mxGeometry x="-656" y="917" width="89" height="98" as="geometry" />
        </mxCell>
        <mxCell id="6a7d8f32e03d9370-4" value="Hostname3" style="verticalLabelPosition=bottom;aspect=fixed;html=1;verticalAlign=top;strokeColor=none;shape=mxgraph.citrix.desktop;fillColor=#66B2FF;gradientColor=#0066CC;fontSize=14;" parent="1" vertex="1">
          <mxGeometry x="-656" y="753" width="89" height="98" as="geometry" />
        </mxCell>
        <mxCell id="6a7d8f32e03d9370-5" value="Hostname2" style="verticalLabelPosition=bottom;aspect=fixed;html=1;verticalAlign=top;strokeColor=none;shape=mxgraph.citrix.desktop;fillColor=#66B2FF;gradientColor=#0066CC;fontSize=14;" parent="1" vertex="1">
          <mxGeometry x="-660" y="589" width="89" height="98" as="geometry" />
        </mxCell>
        <mxCell id="4nuEoEitwcxWsx1A6rbW-3" value="Zabbix server" style="whiteSpace=wrap;html=1;fillColor=#dae8fc;fontSize=14;strokeColor=none;verticalAlign=top;" vertex="1" parent="1">
          <mxGeometry x="-530" y="483" width="129" height="450" as="geometry" />
        </mxCell>
        <mxCell id="4nuEoEitwcxWsx1A6rbW-4" value="zabbix_db" style="verticalLabelPosition=bottom;aspect=fixed;html=1;verticalAlign=top;strokeColor=none;shape=mxgraph.citrix.desktop;fillColor=#66B2FF;gradientColor=#0066CC;fontSize=14;" vertex="1" parent="1">
          <mxGeometry x="-501.65" y="651" width="89" height="98" as="geometry" />
        </mxCell>
        <mxCell id="4nuEoEitwcxWsx1A6rbW-5" value="zabbix_web" style="verticalLabelPosition=bottom;aspect=fixed;html=1;verticalAlign=top;strokeColor=none;shape=mxgraph.citrix.desktop;fillColor=#66B2FF;gradientColor=#0066CC;fontSize=14;" vertex="1" parent="1">
          <mxGeometry x="-503.35" y="533" width="89" height="98" as="geometry" />
        </mxCell>
        <mxCell id="4nuEoEitwcxWsx1A6rbW-6" value="zabbix_server" style="verticalLabelPosition=bottom;aspect=fixed;html=1;verticalAlign=top;strokeColor=none;shape=mxgraph.citrix.desktop;fillColor=#66B2FF;gradientColor=#0066CC;fontSize=14;" vertex="1" parent="1">
          <mxGeometry x="-501.65" y="785" width="89" height="98" as="geometry" />
        </mxCell>
        <mxCell id="4nuEoEitwcxWsx1A6rbW-2" value="" style="sketch=0;outlineConnect=0;fontColor=#232F3E;gradientColor=none;fillColor=#E7157B;strokeColor=none;dashed=0;verticalLabelPosition=bottom;verticalAlign=top;align=center;html=1;fontSize=12;fontStyle=0;aspect=fixed;pointerEvents=1;shape=mxgraph.aws4.monitoring;" vertex="1" parent="1">
          <mxGeometry x="-468.15" y="825" width="53.8" height="40" as="geometry" />
        </mxCell>
        <mxCell id="4nuEoEitwcxWsx1A6rbW-8" value="" style="sketch=0;html=1;aspect=fixed;strokeColor=none;shadow=0;fillColor=#3B8DF1;verticalAlign=top;labelPosition=center;verticalLabelPosition=bottom;shape=mxgraph.gcp2.cloud_monitoring" vertex="1" parent="1">
          <mxGeometry x="-458.35" y="697" width="34.2" height="38" as="geometry" />
        </mxCell>
        <mxCell id="4nuEoEitwcxWsx1A6rbW-9" value="" style="verticalLabelPosition=bottom;aspect=fixed;html=1;shape=mxgraph.salesforce.web;" vertex="1" parent="1">
          <mxGeometry x="-462.95000000000005" y="584" width="40" height="31.6" as="geometry" />
        </mxCell>
        <mxCell id="4nuEoEitwcxWsx1A6rbW-12" value="&lt;font style=&quot;font-size: 18px;&quot;&gt;&lt;b&gt;Datacenter AAA&lt;/b&gt;&lt;/font&gt;" style="whiteSpace=wrap;html=1;fillColor=#7EA6E0;gradientColor=none;fontSize=14;strokeColor=none;verticalAlign=top;" vertex="1" parent="1">
          <mxGeometry x="-1410" y="366" width="308" height="680" as="geometry" />
        </mxCell>
        <mxCell id="4nuEoEitwcxWsx1A6rbW-13" value="ntp-aaa" style="verticalLabelPosition=bottom;aspect=fixed;html=1;verticalAlign=top;strokeColor=none;shape=mxgraph.citrix.desktop;fillColor=#66B2FF;gradientColor=#0066CC;fontSize=14;" vertex="1" parent="1">
          <mxGeometry x="-1302.5" y="570" width="89" height="98" as="geometry" />
        </mxCell>
        <mxCell id="4nuEoEitwcxWsx1A6rbW-37" style="edgeStyle=orthogonalEdgeStyle;rounded=0;orthogonalLoop=1;jettySize=auto;html=1;entryX=0.011;entryY=0.514;entryDx=0;entryDy=0;entryPerimeter=0;exitX=-0.034;exitY=0.341;exitDx=0;exitDy=0;exitPerimeter=0;dashed=1;" edge="1" parent="1" source="4nuEoEitwcxWsx1A6rbW-14" target="4nuEoEitwcxWsx1A6rbW-13">
          <mxGeometry relative="1" as="geometry">
            <mxPoint x="-1470" y="960" as="targetPoint" />
            <Array as="points">
              <mxPoint x="-1370" y="951" />
              <mxPoint x="-1370" y="620" />
            </Array>
          </mxGeometry>
        </mxCell>
        <mxCell id="4nuEoEitwcxWsx1A6rbW-14" value="Hostname4" style="verticalLabelPosition=bottom;aspect=fixed;html=1;verticalAlign=top;strokeColor=none;shape=mxgraph.citrix.desktop;fillColor=#66B2FF;gradientColor=#0066CC;fontSize=14;" vertex="1" parent="1">
          <mxGeometry x="-1298.5" y="917" width="89" height="98" as="geometry" />
        </mxCell>
        <mxCell id="4nuEoEitwcxWsx1A6rbW-15" value="Hostname1" style="verticalLabelPosition=bottom;aspect=fixed;html=1;verticalAlign=top;strokeColor=none;shape=mxgraph.citrix.desktop;fillColor=#66B2FF;gradientColor=#0066CC;fontSize=14;" vertex="1" parent="1">
          <mxGeometry x="-1302.5" y="753" width="89" height="98" as="geometry" />
        </mxCell>
        <mxCell id="4nuEoEitwcxWsx1A6rbW-16" value="" style="verticalLabelPosition=bottom;sketch=0;html=1;fillColor=#A153A0;strokeColor=#ffffff;verticalAlign=top;align=center;points=[[0,0.5,0],[0.125,0.25,0],[0.25,0,0],[0.5,0,0],[0.75,0,0],[0.875,0.25,0],[1,0.5,0],[0.875,0.75,0],[0.75,1,0],[0.5,1,0],[0.125,0.75,0]];pointerEvents=1;shape=mxgraph.cisco_safe.compositeIcon;bgIcon=mxgraph.cisco_safe.design.blank_device;resIcon=mxgraph.cisco_safe.design.ntp;" vertex="1" parent="1">
          <mxGeometry x="-1267.5" y="614" width="50" height="45" as="geometry" />
        </mxCell>
        <mxCell id="4nuEoEitwcxWsx1A6rbW-24" value="ntp-zzz" style="verticalLabelPosition=bottom;aspect=fixed;html=1;verticalAlign=top;strokeColor=none;shape=mxgraph.citrix.desktop;fillColor=#66B2FF;gradientColor=#0066CC;fontSize=14;" vertex="1" parent="1">
          <mxGeometry x="-660" y="430" width="89" height="98" as="geometry" />
        </mxCell>
        <mxCell id="4nuEoEitwcxWsx1A6rbW-25" value="" style="verticalLabelPosition=bottom;sketch=0;html=1;fillColor=#A153A0;strokeColor=#ffffff;verticalAlign=top;align=center;points=[[0,0.5,0],[0.125,0.25,0],[0.25,0,0],[0.5,0,0],[0.75,0,0],[0.875,0.25,0],[1,0.5,0],[0.875,0.75,0],[0.75,1,0],[0.5,1,0],[0.125,0.75,0]];pointerEvents=1;shape=mxgraph.cisco_safe.compositeIcon;bgIcon=mxgraph.cisco_safe.design.blank_device;resIcon=mxgraph.cisco_safe.design.ntp;" vertex="1" parent="1">
          <mxGeometry x="-625" y="474" width="50" height="45" as="geometry" />
        </mxCell>
        <mxCell id="4nuEoEitwcxWsx1A6rbW-26" value="" style="shadow=0;dashed=0;html=1;strokeColor=none;fillColor=#4495D1;labelPosition=center;verticalLabelPosition=bottom;verticalAlign=top;align=center;outlineConnect=0;shape=mxgraph.veeam.proxy_server;" vertex="1" parent="1">
          <mxGeometry x="-933" y="780.5" width="76" height="72" as="geometry" />
        </mxCell>
        <mxCell id="4nuEoEitwcxWsx1A6rbW-27" value="" style="outlineConnect=0;dashed=0;verticalLabelPosition=bottom;verticalAlign=top;align=center;html=1;shape=mxgraph.aws3.internet_2;fillColor=#D2D3D3;gradientColor=none;" vertex="1" parent="1">
          <mxGeometry x="-989.75" y="170" width="189.5" height="128.72" as="geometry" />
        </mxCell>
        <mxCell id="4nuEoEitwcxWsx1A6rbW-28" style="edgeStyle=none;rounded=0;html=1;startSize=10;endSize=10;jettySize=auto;orthogonalLoop=1;fontSize=14;endArrow=classic;endFill=1;strokeWidth=2;entryX=0.5;entryY=1;entryDx=0;entryDy=0;entryPerimeter=0;exitX=0.5;exitY=0;exitDx=0;exitDy=0;startArrow=classic;startFill=1;" edge="1" parent="1" source="6a7d8f32e03d9370-58" target="4nuEoEitwcxWsx1A6rbW-27">
          <mxGeometry relative="1" as="geometry">
            <mxPoint x="-930.5" y="522" as="sourcePoint" />
            <mxPoint x="-283.5" y="517.7344071281696" as="targetPoint" />
          </mxGeometry>
        </mxCell>
        <mxCell id="6a7d8f32e03d9370-33" style="edgeStyle=none;rounded=0;html=1;startSize=10;endSize=10;jettySize=auto;orthogonalLoop=1;fontSize=14;endArrow=classic;endFill=1;strokeWidth=2;entryX=0;entryY=0.25;entryDx=0;entryDy=0;startArrow=none;startFill=0;exitX=0.961;exitY=0.657;exitDx=0;exitDy=0;exitPerimeter=0;" parent="1" source="4nuEoEitwcxWsx1A6rbW-15" target="6a7d8f32e03d9370-58" edge="1">
          <mxGeometry relative="1" as="geometry">
            <mxPoint x="-1137.9999999999995" y="486.9839834596826" as="sourcePoint" />
            <mxPoint x="-495" y="482.99569951757417" as="targetPoint" />
          </mxGeometry>
        </mxCell>
        <mxCell id="4nuEoEitwcxWsx1A6rbW-29" style="edgeStyle=none;rounded=0;html=1;startSize=10;endSize=10;jettySize=auto;orthogonalLoop=1;fontSize=14;endArrow=classic;endFill=1;strokeWidth=2;entryX=0;entryY=0.75;entryDx=0;entryDy=0;exitX=0.987;exitY=0.745;exitDx=0;exitDy=0;exitPerimeter=0;" edge="1" parent="1" source="4nuEoEitwcxWsx1A6rbW-14" target="6a7d8f32e03d9370-58">
          <mxGeometry relative="1" as="geometry">
            <mxPoint x="-1137.9999999999995" y="555.4839834596826" as="sourcePoint" />
            <mxPoint x="-980" y="780.5" as="targetPoint" />
          </mxGeometry>
        </mxCell>
        <mxCell id="4nuEoEitwcxWsx1A6rbW-30" style="edgeStyle=none;rounded=0;html=1;startSize=10;endSize=10;jettySize=auto;orthogonalLoop=1;fontSize=14;endArrow=none;endFill=0;strokeWidth=2;entryX=-0.052;entryY=0.392;entryDx=0;entryDy=0;entryPerimeter=0;exitX=1;exitY=0.5;exitDx=0;exitDy=0;startArrow=classic;startFill=1;" edge="1" parent="1" source="6a7d8f32e03d9370-58" target="6a7d8f32e03d9370-4">
          <mxGeometry relative="1" as="geometry">
            <mxPoint x="-820" y="850" as="sourcePoint" />
            <mxPoint x="-665" y="614" as="targetPoint" />
          </mxGeometry>
        </mxCell>
        <mxCell id="4nuEoEitwcxWsx1A6rbW-31" style="edgeStyle=none;rounded=0;html=1;startSize=10;endSize=10;jettySize=auto;orthogonalLoop=1;fontSize=14;endArrow=none;endFill=0;strokeWidth=2;entryX=0.01;entryY=0.426;entryDx=0;entryDy=0;entryPerimeter=0;exitX=1;exitY=0.75;exitDx=0;exitDy=0;startArrow=classic;startFill=1;" edge="1" parent="1" source="6a7d8f32e03d9370-58" target="6a7d8f32e03d9370-3">
          <mxGeometry relative="1" as="geometry">
            <mxPoint x="-790" y="732" as="sourcePoint" />
            <mxPoint x="-635" y="496" as="targetPoint" />
          </mxGeometry>
        </mxCell>
        <mxCell id="4nuEoEitwcxWsx1A6rbW-32" style="edgeStyle=none;rounded=0;html=1;startSize=10;endSize=10;jettySize=auto;orthogonalLoop=1;fontSize=14;endArrow=classic;endFill=1;strokeWidth=2;startArrow=none;startFill=0;exitX=0.961;exitY=0.657;exitDx=0;exitDy=0;exitPerimeter=0;" edge="1" parent="1" target="4nuEoEitwcxWsx1A6rbW-27">
          <mxGeometry relative="1" as="geometry">
            <mxPoint x="-1217.5" y="614" as="sourcePoint" />
            <mxPoint x="-980.5" y="552" as="targetPoint" />
          </mxGeometry>
        </mxCell>
        <mxCell id="4nuEoEitwcxWsx1A6rbW-33" style="edgeStyle=none;rounded=0;html=1;startSize=10;endSize=10;jettySize=auto;orthogonalLoop=1;fontSize=14;endArrow=classic;endFill=1;strokeWidth=2;startArrow=none;startFill=0;exitX=-0.047;exitY=0.409;exitDx=0;exitDy=0;exitPerimeter=0;" edge="1" parent="1" source="4nuEoEitwcxWsx1A6rbW-24" target="4nuEoEitwcxWsx1A6rbW-27">
          <mxGeometry relative="1" as="geometry">
            <mxPoint x="-1207.5" y="624" as="sourcePoint" />
            <mxPoint x="-940" y="309" as="targetPoint" />
          </mxGeometry>
        </mxCell>
        <mxCell id="4nuEoEitwcxWsx1A6rbW-34" style="edgeStyle=none;rounded=0;html=1;startSize=10;endSize=10;jettySize=auto;orthogonalLoop=1;fontSize=14;endArrow=classic;endFill=1;strokeWidth=2;startArrow=none;startFill=0;exitX=0.06;exitY=0.203;exitDx=0;exitDy=0;exitPerimeter=0;" edge="1" parent="1" source="4nuEoEitwcxWsx1A6rbW-5" target="4nuEoEitwcxWsx1A6rbW-27">
          <mxGeometry relative="1" as="geometry">
            <mxPoint x="-682" y="539" as="sourcePoint" />
            <mxPoint x="-850" y="368" as="targetPoint" />
          </mxGeometry>
        </mxCell>
        <mxCell id="4nuEoEitwcxWsx1A6rbW-35" style="edgeStyle=none;rounded=0;html=1;startSize=10;endSize=10;jettySize=auto;orthogonalLoop=1;fontSize=14;endArrow=classic;endFill=1;strokeWidth=2;startArrow=none;startFill=0;entryX=0.999;entryY=0.33;entryDx=0;entryDy=0;entryPerimeter=0;exitX=0.01;exitY=0.126;exitDx=0;exitDy=0;exitPerimeter=0;" edge="1" parent="1" source="4nuEoEitwcxWsx1A6rbW-6" target="4nuEoEitwcxWsx1A6rbW-12">
          <mxGeometry relative="1" as="geometry">
            <mxPoint x="-790" y="610" as="sourcePoint" />
            <mxPoint x="-684" y="551" as="targetPoint" />
          </mxGeometry>
        </mxCell>
        <mxCell id="4nuEoEitwcxWsx1A6rbW-38" style="edgeStyle=orthogonalEdgeStyle;rounded=0;orthogonalLoop=1;jettySize=auto;html=1;entryX=0.067;entryY=0.68;entryDx=0;entryDy=0;entryPerimeter=0;exitX=-0.031;exitY=0.343;exitDx=0;exitDy=0;exitPerimeter=0;dashed=1;" edge="1" parent="1" source="4nuEoEitwcxWsx1A6rbW-15" target="4nuEoEitwcxWsx1A6rbW-13">
          <mxGeometry relative="1" as="geometry">
            <Array as="points">
              <mxPoint x="-1350" y="787" />
              <mxPoint x="-1350" y="637" />
            </Array>
          </mxGeometry>
        </mxCell>
        <mxCell id="4nuEoEitwcxWsx1A6rbW-39" style="edgeStyle=orthogonalEdgeStyle;rounded=0;orthogonalLoop=1;jettySize=auto;html=1;entryX=0.98;entryY=0.935;entryDx=0;entryDy=0;entryPerimeter=0;exitX=0.966;exitY=0.473;exitDx=0;exitDy=0;exitPerimeter=0;dashed=1;" edge="1" parent="1" source="6a7d8f32e03d9370-5" target="4nuEoEitwcxWsx1A6rbW-24">
          <mxGeometry relative="1" as="geometry">
            <Array as="points">
              <mxPoint x="-560" y="635" />
              <mxPoint x="-560" y="522" />
            </Array>
          </mxGeometry>
        </mxCell>
        <mxCell id="4nuEoEitwcxWsx1A6rbW-40" style="edgeStyle=orthogonalEdgeStyle;rounded=0;orthogonalLoop=1;jettySize=auto;html=1;entryX=0.994;entryY=0.731;entryDx=0;entryDy=0;entryPerimeter=0;dashed=1;" edge="1" parent="1" source="6a7d8f32e03d9370-4" target="4nuEoEitwcxWsx1A6rbW-24">
          <mxGeometry relative="1" as="geometry">
            <Array as="points">
              <mxPoint x="-551" y="802" />
              <mxPoint x="-551" y="502" />
            </Array>
          </mxGeometry>
        </mxCell>
        <mxCell id="4nuEoEitwcxWsx1A6rbW-41" style="edgeStyle=orthogonalEdgeStyle;rounded=0;orthogonalLoop=1;jettySize=auto;html=1;entryX=0.994;entryY=0.514;entryDx=0;entryDy=0;entryPerimeter=0;dashed=1;" edge="1" parent="1" source="6a7d8f32e03d9370-3" target="4nuEoEitwcxWsx1A6rbW-24">
          <mxGeometry relative="1" as="geometry">
            <Array as="points">
              <mxPoint x="-540" y="966" />
              <mxPoint x="-540" y="480" />
            </Array>
          </mxGeometry>
        </mxCell>
      </root>
    </mxGraphModel>
  </diagram>
</mxfile>
